<svg width="24" height="24" viewBox="0 0 24 24" fill="none" xmlns="http://www.w3.org/2000/svg">
<path d="M7.24455 22C6.74805 22 6.3248 21.8232 5.9748 21.4697C5.6248 21.1162 5.4498 20.6912 5.4498 20.1947C5.4498 19.6982 5.62655 19.275 5.98005 18.925C6.33355 18.575 6.75855 18.4 7.25505 18.4C7.75155 18.4 8.1748 18.5767 8.5248 18.9303C8.8748 19.2838 9.0498 19.7087 9.0498 20.2052C9.0498 20.7017 8.87305 21.125 8.51955 21.475C8.16605 21.825 7.74105 22 7.24455 22ZM17.3445 22C16.848 22 16.4248 21.8232 16.0748 21.4697C15.7248 21.1162 15.5498 20.6912 15.5498 20.1947C15.5498 19.6982 15.7265 19.275 16.08 18.925C16.4335 18.575 16.8585 18.4 17.355 18.4C17.8515 18.4 18.2748 18.5767 18.6248 18.9303C18.9748 19.2838 19.1498 19.7087 19.1498 20.2052C19.1498 20.7017 18.9731 21.125 18.6196 21.475C18.2661 21.825 17.841 22 17.3445 22ZM1.5498 3.5V2H4.4498L8.6998 11.1H15.8926L19.8998 4.1H21.5748L16.9748 12.725H8.2748L6.8748 15.325H19.1498V16.825H4.3748L7.1998 11.6L3.4998 3.5H1.5498Z" fill="white"/>
</svg>
